<svg width="154" height="154" viewBox="0 0 154 154" fill="none" xmlns="http://www.w3.org/2000/svg">
<path d="M138.6 76.9777L138.461 78.411C137.9 78.3969 137.386 78.5147 136.92 78.7643C136.454 79.0139 136.07 79.3787 135.769 79.8586C135.467 80.3518 135.283 80.9435 135.216 81.6336C135.158 82.2308 135.196 82.7368 135.33 83.1517C135.476 83.5811 135.699 83.9107 135.998 84.1405C136.296 84.3837 136.658 84.5258 137.082 84.5669C137.52 84.6092 137.882 84.537 138.168 84.3504C138.454 84.1637 138.709 83.8803 138.933 83.5001C139.158 83.1199 139.382 82.6661 139.608 82.1387C139.817 81.6365 140.053 81.1302 140.317 80.6199C140.581 80.1096 140.888 79.6369 141.238 79.2019C141.587 78.7802 141.987 78.4505 142.439 78.2129C142.904 77.9766 143.441 77.8879 144.052 77.9469C144.649 78.0047 145.191 78.2178 145.678 78.5864C146.176 78.9695 146.555 79.4884 146.813 80.1429C147.083 80.812 147.175 81.5912 147.089 82.4804C146.955 83.8739 146.476 84.8791 145.653 85.4961C144.829 86.113 143.795 86.3479 142.55 86.2008L142.689 84.7674C143.634 84.832 144.336 84.632 144.796 84.1675C145.257 83.703 145.526 83.0659 145.604 82.2564C145.67 81.5795 145.567 80.9735 145.298 80.4384C145.041 79.9046 144.581 79.6056 143.918 79.5414C143.626 79.5132 143.362 79.5413 143.126 79.6256C142.902 79.7245 142.685 79.8911 142.475 80.1253C142.263 80.3727 142.043 80.7065 141.815 81.1264C141.599 81.561 141.353 82.0932 141.078 82.7229C140.904 83.1348 140.703 83.5507 140.475 83.9707C140.246 84.4039 139.974 84.7929 139.659 85.1376C139.343 85.4955 138.955 85.7661 138.496 85.9493C138.048 86.1471 137.499 86.2146 136.849 86.1517C136.225 86.0914 135.656 85.8823 135.141 85.5245C134.638 85.1812 134.252 84.675 133.982 84.0058C133.71 83.35 133.623 82.5244 133.719 81.5291C133.801 80.6797 133.984 79.9607 134.269 79.372C134.566 78.7979 134.918 78.3363 135.327 77.9874C135.736 77.6385 136.15 77.3771 136.569 77.2032C136.999 77.0439 137.397 76.9485 137.762 76.9167C138.126 76.885 138.406 76.9054 138.6 76.9777Z" fill="white" fill-opacity="0.8"/>
<path d="M134.071 98.3233C133.308 97.9908 132.705 97.526 132.261 96.9289C131.826 96.3485 131.552 95.699 131.438 94.9804C131.337 94.2658 131.399 93.5453 131.622 92.819C131.873 92.0034 132.306 91.2997 132.921 90.7077C133.536 90.1157 134.281 89.7105 135.158 89.4921C136.043 89.2904 136.995 89.3465 138.015 89.6604C139.034 89.9743 139.847 90.4617 140.453 91.1225C141.067 91.8 141.468 92.5584 141.656 93.3975C141.844 94.2367 141.813 95.064 141.562 95.8796C141.338 96.6059 140.979 97.2278 140.485 97.7453C139.987 98.2756 139.395 98.6582 138.708 98.8933C138.018 99.1412 137.269 99.1964 136.46 99.059L136.89 97.6637C137.683 97.6707 138.366 97.4694 138.938 97.0598C139.524 96.6541 139.92 96.1135 140.128 95.4381C140.297 94.8902 140.316 94.331 140.184 93.7604C140.053 93.1898 139.765 92.6756 139.32 92.2177C138.888 91.7638 138.296 91.421 137.544 91.1895C136.805 90.9619 136.123 90.9123 135.497 91.0406C134.885 91.1728 134.365 91.4315 133.94 91.8166C133.523 92.2184 133.229 92.6997 133.056 93.2604C132.817 94.0377 132.826 94.7313 133.085 95.3411C133.352 95.9675 133.822 96.5029 134.495 96.9471L134.071 98.3233Z" fill="white" fill-opacity="0.8"/>
<path d="M138.221 104.494L137.495 105.92L128.583 101.384L129.309 99.9579L138.221 104.494ZM134.707 108.091C135.015 107.485 135.121 106.896 135.024 106.323C134.932 105.767 134.727 105.259 134.409 104.798C134.096 104.354 133.755 103.994 133.388 103.717L134.431 104.225C134.537 104.28 134.704 104.394 134.929 104.569C135.154 104.743 135.388 104.975 135.631 105.263C135.885 105.557 136.1 105.883 136.277 106.242C136.459 106.619 136.557 107.028 136.572 107.47C136.587 107.911 136.47 108.375 136.222 108.863L134.707 108.091Z" fill="white" fill-opacity="0.8"/>
<path d="M123.035 110.32C123.552 109.641 124.201 109.13 124.982 108.787C125.763 108.443 126.603 108.32 127.501 108.417C128.401 108.533 129.276 108.914 130.124 109.56C130.973 110.206 131.568 110.944 131.908 111.773C132.251 112.621 132.367 113.471 132.254 114.324C132.141 115.176 131.826 115.942 131.309 116.621C130.792 117.3 130.142 117.802 129.358 118.127C128.566 118.462 127.72 118.572 126.819 118.456C125.93 118.348 125.06 117.971 124.212 117.325C123.363 116.679 122.763 115.937 122.412 115.1C122.071 114.271 121.963 113.434 122.086 112.59C122.201 111.756 122.518 110.999 123.035 110.32ZM124.228 111.229C123.889 111.675 123.681 112.178 123.605 112.741C123.529 113.303 123.615 113.871 123.865 114.447C124.116 115.04 124.555 115.576 125.181 116.052C125.807 116.529 126.434 116.805 127.063 116.882C127.694 116.977 128.276 116.917 128.808 116.703C129.341 116.488 129.776 116.158 130.116 115.712C130.455 115.267 130.661 114.753 130.735 114.173C130.811 113.61 130.723 113.033 130.471 112.439C130.23 111.853 129.792 111.318 129.155 110.833C128.529 110.356 127.901 110.071 127.269 109.975C126.64 109.899 126.061 109.977 125.532 110.211C125.002 110.444 124.567 110.784 124.228 111.229Z" fill="white" fill-opacity="0.8"/>
<path d="M127.216 127.243L126.057 128.345L116.412 118.197L117.572 117.095L127.216 127.243Z" fill="white" fill-opacity="0.8"/>
<path d="M121.42 132.45L120.147 133.42L111.665 122.281L112.938 121.312L121.42 132.45Z" fill="white" fill-opacity="0.8"/>
<path d="M99.5054 129.276C100.249 128.981 101.012 128.915 101.794 129.078C102.568 129.258 103.278 129.637 103.922 130.213C104.572 130.802 105.081 131.561 105.45 132.49C105.819 133.42 105.975 134.319 105.918 135.188C105.861 136.057 105.612 136.822 105.172 137.485C104.732 138.147 104.122 138.633 103.341 138.943C102.647 139.218 102.031 139.312 101.494 139.224C100.95 139.153 100.471 138.941 100.059 138.588C99.6462 138.235 99.281 137.785 98.9632 137.237C98.6329 136.694 98.335 136.088 98.0695 135.418C97.8826 134.947 97.7281 134.413 97.606 133.816C97.4888 133.232 97.4533 132.636 97.4996 132.03C97.5384 131.441 97.7107 130.899 98.0167 130.404C98.3275 129.922 98.8237 129.546 99.5054 129.276ZM99.6941 130.836C99.0621 131.087 98.603 131.448 98.317 131.921C98.0185 132.398 97.8709 132.929 97.8743 133.516C97.8825 134.116 98.0095 134.725 98.2554 135.345C98.5258 136.026 98.8672 136.579 99.2795 137.004C99.6843 137.446 100.154 137.726 100.688 137.843C101.215 137.979 101.789 137.923 102.408 137.677C103.338 137.309 103.926 136.695 104.174 135.837C104.426 134.99 104.356 134.072 103.963 133.08C103.702 132.423 103.344 131.884 102.89 131.462C102.428 131.057 101.921 130.792 101.37 130.666C100.81 130.558 100.252 130.615 99.6941 130.836ZM101.582 143.729L100.095 144.319L94.9316 131.306L96.2887 130.767C96.4216 131.03 96.5805 131.34 96.7652 131.697C96.9375 132.059 97.0679 132.352 97.1564 132.575L101.582 143.729Z" fill="white" fill-opacity="0.8"/>
<path d="M87.0873 133.053C87.9295 132.916 88.7524 132.991 89.5559 133.279C90.3593 133.566 91.0536 134.054 91.6387 134.742C92.2127 135.446 92.5856 136.324 92.7573 137.377C92.929 138.429 92.8534 139.374 92.5305 140.21C92.1966 141.062 91.6955 141.758 91.0272 142.299C90.359 142.841 89.6038 143.18 88.7616 143.317C87.9193 143.455 87.102 143.372 86.3096 143.069C85.504 142.768 84.8141 142.266 84.2401 141.562C83.6681 140.872 83.2963 140.001 83.1246 138.948C82.9529 137.895 83.0274 136.944 83.3482 136.095C83.6711 135.258 84.1678 134.576 84.8382 134.048C85.4954 133.522 86.2451 133.19 87.0873 133.053ZM87.3288 134.534C86.7761 134.624 86.2789 134.847 85.837 135.202C85.3952 135.558 85.067 136.03 84.8523 136.619C84.6266 137.224 84.5771 137.914 84.7037 138.69C84.8304 139.467 85.0956 140.099 85.4994 140.587C85.8923 141.09 86.3557 141.447 86.8899 141.657C87.424 141.867 87.9674 141.927 88.5201 141.837C89.0728 141.747 89.5755 141.516 90.0284 141.145C90.4702 140.789 90.804 140.309 91.0296 139.705C91.2575 139.114 91.307 138.424 91.1782 137.634C91.0515 136.858 90.7918 136.218 90.399 135.715C89.9952 135.227 89.5207 134.885 88.9756 134.69C88.4304 134.496 87.8815 134.443 87.3288 134.534Z" fill="white" fill-opacity="0.8"/>
<path d="M69.2578 135.237L69.6545 135.292L66.1705 143.536L64.4374 143.382L68.7696 133.727L70.2637 133.86L72.0377 142.813L71.6392 142.777L74.9652 134.278L76.4593 134.411L78.9999 144.677L77.2667 144.523L75.3321 135.797L75.7323 135.812L72.6848 144.115L70.7524 143.943L69.2578 135.237Z" fill="white" fill-opacity="0.8"/>
<path d="M59.5095 142.239L57.9992 141.711L61.3003 132.272L62.8106 132.8L59.5095 142.239ZM54.686 140.764C54.1826 140.588 53.7559 140.354 53.406 140.063C53.056 139.771 52.7932 139.432 52.6176 139.045C52.4419 138.659 52.3512 138.232 52.3454 137.764C52.3352 137.308 52.4204 136.822 52.6008 136.306L54.806 130.001L56.3163 130.529L54.2432 136.457C53.9879 137.187 53.9663 137.794 54.1785 138.278C54.3907 138.761 54.8366 139.122 55.5162 139.36C56.0323 139.54 56.5567 139.575 57.0897 139.465C57.6226 139.355 58.1153 139.118 58.5676 138.753C59.0029 138.397 59.3577 137.928 59.6319 137.346L59.2679 138.447C59.0201 138.954 58.7269 139.388 58.3885 139.75C58.0375 140.107 57.6644 140.386 57.2693 140.587C56.8572 140.796 56.4338 140.917 55.999 140.948C55.5516 140.975 55.1139 140.914 54.686 140.764Z" fill="white" fill-opacity="0.8"/>
<path d="M38.0419 128.708L39.7268 126.409L42.7715 128.641L41.0866 130.94L38.0419 128.708Z" fill="white" fill-opacity="0.8"/>
<path d="M30.9693 118.634L30.097 117.489C30.5183 117.118 30.8151 116.682 30.9875 116.182C31.1598 115.682 31.1933 115.154 31.0879 114.597C30.9744 114.03 30.7077 113.471 30.2876 112.919C29.9242 112.442 29.5523 112.096 29.1721 111.883C28.7731 111.667 28.3858 111.577 28.0101 111.612C27.6262 111.636 27.2646 111.777 26.9251 112.036C26.575 112.302 26.3586 112.601 26.2756 112.932C26.1927 113.264 26.1982 113.645 26.292 114.076C26.3858 114.508 26.5293 114.993 26.7226 115.533C26.9103 116.044 27.0809 116.576 27.2343 117.13C27.3876 117.683 27.4837 118.238 27.5224 118.795C27.5531 119.342 27.4835 119.856 27.3136 120.337C27.1332 120.826 26.799 121.257 26.311 121.628C25.8337 121.992 25.2912 122.204 24.6836 122.264C24.0574 122.322 23.4271 122.199 22.7929 121.894C22.14 121.587 21.5429 121.078 21.0017 120.367C20.1536 119.253 19.8218 118.19 20.0064 117.178C20.191 116.166 20.79 115.291 21.8033 114.553L22.6757 115.699C21.9387 116.293 21.5592 116.918 21.5373 117.571C21.5154 118.225 21.7508 118.875 22.2436 119.522C22.6555 120.063 23.1423 120.438 23.7038 120.647C24.2547 120.865 24.7954 120.771 25.3258 120.368C25.5592 120.19 25.7337 119.99 25.8495 119.768C25.9465 119.543 25.9925 119.273 25.9876 118.959C25.9745 118.633 25.909 118.239 25.7909 117.776C25.6542 117.31 25.4728 116.753 25.2467 116.104C25.0943 115.684 24.9591 115.242 24.8411 114.779C24.7149 114.305 24.6502 113.835 24.6468 113.368C24.6353 112.891 24.7359 112.429 24.9487 111.982C25.1427 111.533 25.4997 111.11 26.0195 110.714C26.518 110.335 27.0777 110.101 27.6984 110.014C28.3004 109.924 28.9279 110.033 29.5808 110.34C30.2257 110.637 30.851 111.183 31.4568 111.979C31.9738 112.658 32.3279 113.31 32.5191 113.935C32.6917 114.558 32.7465 115.136 32.6838 115.67C32.621 116.204 32.4951 116.676 32.3061 117.089C32.0984 117.498 31.8715 117.838 31.6255 118.11C31.3795 118.381 31.1608 118.556 30.9693 118.634Z" fill="white" fill-opacity="0.8"/>
<path d="M19.8298 100.032C20.6141 99.7548 21.3723 99.683 22.1042 99.8165C22.8184 99.9439 23.4621 100.231 24.0354 100.679C24.5968 101.133 25.0435 101.702 25.3756 102.385C25.7486 103.153 25.9123 103.963 25.8668 104.815C25.8213 105.667 25.5528 106.472 25.0611 107.23C24.5517 107.981 23.8172 108.59 22.8578 109.056C21.8984 109.522 20.9718 109.72 20.0781 109.651C19.1666 109.575 18.3558 109.294 17.6458 108.809C16.9357 108.324 16.3942 107.698 16.0213 106.93C15.6892 106.246 15.5272 105.547 15.5353 104.831C15.5376 104.104 15.7094 103.42 16.0506 102.78C16.386 102.128 16.8962 101.576 17.5811 101.125L18.2192 102.438C17.6346 102.974 17.2728 103.587 17.1338 104.277C16.9828 104.973 17.0617 105.639 17.3705 106.275C17.621 106.79 17.9889 107.212 18.4742 107.539C18.9595 107.867 19.5209 108.046 20.1586 108.077C20.7844 108.114 21.451 107.961 22.1586 107.617C22.8542 107.279 23.3868 106.85 23.7565 106.329C24.1142 105.815 24.3171 105.271 24.3654 104.699C24.3958 104.121 24.2828 103.568 24.0265 103.041C23.671 102.309 23.1907 101.809 22.5855 101.539C21.9625 101.264 21.2537 101.193 20.4591 101.327L19.8298 100.032Z" fill="white" fill-opacity="0.8"/>
<path d="M12.603 98.3989L12.1611 96.8611L21.7723 94.0995L22.2141 95.6373L12.603 98.3989ZM12.7191 93.3713C12.9069 94.0249 13.2318 94.528 13.6939 94.8808C14.1394 95.2245 14.6361 95.4563 15.1839 95.5764C15.7152 95.6873 16.2097 95.7186 16.6675 95.6703L15.5582 96.0099C15.4428 96.043 15.2433 96.0726 14.9594 96.0987C14.6756 96.1247 14.3468 96.1152 13.9731 96.0699C13.5866 96.0284 13.2064 95.9365 12.8326 95.7942C12.4423 95.6428 12.0912 95.4107 11.7794 95.098C11.4676 94.7853 11.2362 94.3662 11.0852 93.8408L12.7191 93.3713Z" fill="white" fill-opacity="0.8"/>
<path d="M19.7403 83.8457C19.8257 84.6948 19.7002 85.5114 19.3636 86.2957C19.0271 87.08 18.4975 87.743 17.7747 88.2847C17.0374 88.8145 16.138 89.1328 15.0767 89.2395C14.0154 89.3463 13.0773 89.2128 12.2625 88.8391C11.4331 88.4536 10.7688 87.9106 10.2695 87.2104C9.77027 86.5102 9.47795 85.7356 9.39255 84.8865C9.30715 84.0375 9.44001 83.2268 9.79115 82.4544C10.1409 81.6688 10.6845 81.0111 11.4219 80.4813C12.1459 79.9529 13.0386 79.6353 14.1 79.5285C15.1613 79.4218 16.106 79.5546 16.9341 79.9269C17.7489 80.3005 18.3993 80.8382 18.8853 81.5397C19.3699 82.228 19.6549 82.9967 19.7403 83.8457ZM18.2479 83.9958C18.1918 83.4386 17.9998 82.9286 17.6718 82.4658C17.3439 82.003 16.8926 81.6463 16.318 81.3959C15.7288 81.1336 15.0428 81.0418 14.2601 81.1205C13.4774 81.1992 12.8301 81.4251 12.3182 81.7982C11.7917 82.1594 11.4072 82.6001 11.1647 83.1203C10.9222 83.6405 10.829 84.1792 10.885 84.7364C10.9411 85.2936 11.1404 85.8096 11.4829 86.2843C11.8109 86.7472 12.2695 87.1098 12.8587 87.3721C13.4347 87.6358 14.1206 87.7276 14.9166 87.6475C15.6993 87.5688 16.3539 87.3489 16.8804 86.9877C17.3923 86.6146 17.7622 86.162 17.9901 85.6298C18.218 85.0977 18.3039 84.553 18.2479 83.9958Z" fill="white" fill-opacity="0.8"/>
<path d="M5.13883 73.9442L5.24369 72.3476L19.2136 73.2652L19.1087 74.8618L5.13883 73.9442Z" fill="white" fill-opacity="0.8"/>
<path d="M5.83895 66.2853L6.11464 64.7093L19.9052 67.1216L19.6296 68.6977L5.83895 66.2853Z" fill="white" fill-opacity="0.8"/>
<path d="M23.9959 53.8796C23.6517 54.6017 23.1375 55.169 22.4535 55.5815C21.7631 55.9761 20.9857 56.1816 20.1213 56.1979C19.2448 56.2084 18.3552 55.9985 17.4525 55.5682C16.5498 55.1379 15.8238 54.5849 15.2743 53.9094C14.7248 53.2339 14.3861 52.5037 14.258 51.7189C14.1299 50.9341 14.2466 50.1626 14.6081 49.4043C14.9294 48.7303 15.3168 48.2429 15.7704 47.9422C16.2177 47.6236 16.7124 47.4533 17.2547 47.4312C17.797 47.409 18.3711 47.4907 18.9769 47.6761C19.5885 47.8495 20.2193 48.0911 20.8692 48.4009C21.3266 48.6189 21.8031 48.9052 22.2988 49.2597C22.7825 49.6084 23.2137 50.0207 23.5924 50.4967C23.9648 50.9549 24.2071 51.4692 24.3192 52.0396C24.4193 52.6043 24.3115 53.2176 23.9959 53.8796ZM22.796 52.8644C23.0886 52.2506 23.1791 51.6734 23.0676 51.1328C22.9618 50.5801 22.708 50.0899 22.3064 49.6621C21.8927 49.2285 21.3849 48.8683 20.7831 48.5814C20.1212 48.2659 19.4947 48.0928 18.9037 48.0622C18.3064 48.0137 17.7718 48.1282 17.2999 48.4054C16.8217 48.6649 16.4392 49.0955 16.1523 49.6973C15.722 50.6 15.7081 51.4501 16.1108 52.2477C16.5014 53.0395 17.1781 53.6649 18.141 54.1239C18.7789 54.428 19.408 54.5802 20.0282 54.5804C20.6422 54.5629 21.194 54.4124 21.6837 54.1288C22.167 53.8275 22.5378 53.406 22.796 52.8644ZM12.641 44.7L13.3295 43.2557L25.967 49.2801L25.3387 50.598C25.0625 50.4959 24.7352 50.3768 24.3569 50.2408C23.9844 50.0927 23.6898 49.9671 23.4731 49.8638L12.641 44.7Z" fill="white" fill-opacity="0.8"/>
<path d="M30.4662 42.6893C29.9418 43.3626 29.2872 43.8667 28.5023 44.2018C27.7174 44.5369 26.8765 44.6509 25.9796 44.5439C25.0804 44.4181 24.2101 44.0275 23.3685 43.3721C22.527 42.7166 21.9405 41.9725 21.6089 41.1396C21.2751 40.2881 21.1692 39.4367 21.2915 38.5854C21.4137 37.7342 21.7369 36.9719 22.2613 36.2987C22.7857 35.6255 23.4414 35.1307 24.2287 34.8143C25.0241 34.4874 25.8714 34.3869 26.7706 34.5126C27.6593 34.6302 28.5244 35.0167 29.3659 35.6721C30.2074 36.3276 30.7992 37.0758 31.1413 37.9169C31.4728 38.7497 31.5722 39.5877 31.4395 40.4307C31.315 41.2632 30.9905 42.0161 30.4662 42.6893ZM29.2828 41.7676C29.6269 41.3258 29.8401 40.8243 29.9223 40.263C30.0045 39.7018 29.9243 39.1322 29.6814 38.5543C29.4362 37.9578 29.0033 37.4178 28.3827 36.9344C27.7621 36.451 27.1378 36.1676 26.5099 36.0841C25.8797 35.9819 25.2973 36.0353 24.7627 36.2443C24.2281 36.4533 23.7888 36.7786 23.4447 37.2204C23.1006 37.6622 22.8886 38.1731 22.8086 38.7531C22.7264 39.3144 22.8079 39.8933 23.053 40.4898C23.2877 41.0782 23.7206 41.6182 24.3517 42.1098C24.9723 42.5932 25.5978 42.886 26.228 42.9881C26.8559 43.0716 27.436 42.9995 27.9682 42.7718C28.5005 42.5441 28.9387 42.2094 29.2828 41.7676Z" fill="white" fill-opacity="0.8"/>
<path d="M41.8489 29.0353L41.521 29.2653L38.4473 20.8599L39.82 19.7907L43.2352 29.8062L42.0518 30.7279L34.6492 25.3899L34.9648 25.1441L38.328 33.6282L37.1446 34.55L28.2859 28.7745L29.6586 27.7053L37.0241 32.7679L36.7208 33.0294L33.2877 24.8787L34.8182 23.6866L41.8489 29.0353Z" fill="white" fill-opacity="0.8"/>
<path d="M44.4078 17.083L45.8743 16.4433L49.8727 25.6091L48.4062 26.2488L44.4078 17.083ZM48.9474 14.8845C49.4363 14.6712 49.9082 14.5526 50.3633 14.5287C50.8183 14.5048 51.2416 14.5747 51.6331 14.7385C52.0245 14.9023 52.3816 15.1538 52.7042 15.4932C53.0214 15.8203 53.2893 16.2344 53.5079 16.7354L56.1788 22.8582L54.7123 23.498L52.2013 17.7418C51.8921 17.033 51.4952 16.5733 51.0106 16.3629C50.526 16.1524 49.9538 16.1911 49.2938 16.479C48.7928 16.6976 48.3844 17.0285 48.0686 17.4717C47.7528 17.9149 47.553 18.4239 47.4691 18.9987C47.3922 19.556 47.4511 20.1413 47.6459 20.7545L47.1638 19.6993C47.001 19.1593 46.9206 18.6416 46.9227 18.1461C46.9369 17.6453 47.0206 17.1869 47.1738 16.771C47.3338 16.3375 47.5625 15.9614 47.8598 15.6426C48.1694 15.3184 48.5319 15.0657 48.9474 14.8845Z" fill="white" fill-opacity="0.8"/>
<path d="M68.3309 13.1244L68.6288 15.3848L65.6346 15.7793L65.3368 13.5188L68.3309 13.1244Z" fill="white" fill-opacity="0.8"/>
<path d="M79.2628 14.7376L80.689 14.9367C80.6512 15.4968 80.7471 16.0151 80.9768 16.4914C81.2065 16.9677 81.5547 17.3664 82.0215 17.6873C82.5015 18.0101 83.0848 18.2194 83.7715 18.3152C84.3658 18.3982 84.8729 18.3815 85.2931 18.2651C85.7282 18.1373 86.067 17.9288 86.3093 17.6396C86.5648 17.3521 86.7221 16.9971 86.781 16.5745C86.8419 16.1388 86.7851 15.7741 86.6106 15.4805C86.4362 15.1869 86.1638 14.92 85.7935 14.6798C85.4231 14.4397 84.9792 14.196 84.4617 13.9487C83.9689 13.7184 83.473 13.4607 82.9743 13.1757C82.4756 12.8907 82.0163 12.5641 81.5965 12.1958C81.19 11.8294 80.8775 11.4156 80.6592 10.9543C80.4427 10.4799 80.3768 9.9389 80.4616 9.33145C80.5445 8.73721 80.7804 8.20471 81.1692 7.73393C81.5731 7.2518 82.1075 6.89558 82.7723 6.66528C83.4523 6.42361 84.2346 6.36452 85.1194 6.48801C86.5059 6.68154 87.49 7.20257 88.0716 8.05112C88.6533 8.89966 88.8442 9.94274 88.6446 11.1804L87.2184 10.9813C87.3229 10.04 87.1527 9.32971 86.7081 8.8503C86.2634 8.3709 85.6383 8.07498 84.8328 7.96255C84.1593 7.86855 83.5496 7.945 83.0035 8.19189C82.4593 8.42557 82.1412 8.87255 82.049 9.53282C82.0085 9.82333 82.0253 10.0882 82.0996 10.3274C82.189 10.5553 82.3462 10.7792 82.5713 10.9991C82.8096 11.2208 83.1338 11.4545 83.5437 11.7002C83.9688 11.9346 84.4901 12.2025 85.1076 12.5041C85.5118 12.6952 85.9188 12.9135 86.3288 13.1592C86.752 13.4068 87.1291 13.695 87.4601 14.0239C87.8044 14.3547 88.0583 14.7536 88.222 15.2207C88.4007 15.6765 88.4449 16.2279 88.3546 16.8749C88.268 17.4956 88.035 18.0554 87.6557 18.5545C87.2915 19.0421 86.7694 19.4068 86.0895 19.6485C85.4228 19.892 84.5942 19.9446 83.6038 19.8064C82.7586 19.6884 82.048 19.4748 81.4719 19.1655C80.9108 18.8449 80.4646 18.473 80.1333 18.0498C79.8019 17.6266 79.5583 17.2021 79.4023 16.7765C79.2613 16.3395 79.1827 15.9381 79.1665 15.5723C79.1502 15.2066 79.1823 14.9283 79.2628 14.7376Z" fill="white" fill-opacity="0.8"/>
<path d="M100.664 20.2186C100.297 20.9654 99.8054 21.547 99.1888 21.9635C98.5893 22.372 97.9281 22.6167 97.2051 22.6976C96.4866 22.766 95.7696 22.6721 95.0542 22.4158C94.2508 22.1281 93.5673 21.6637 93.0038 21.0228C92.4402 20.3819 92.0692 19.6188 91.8906 18.7334C91.7291 17.8399 91.8282 16.8911 92.1878 15.8869C92.5475 14.8827 93.0711 14.093 93.7587 13.5178C94.4633 12.9346 95.239 12.568 96.0858 12.4181C96.9326 12.2682 97.7577 12.3372 98.5611 12.6249C99.2765 12.8812 99.8816 13.2678 100.376 13.7849C100.883 14.3065 101.239 14.9153 101.443 15.6115C101.659 16.3122 101.68 17.0634 101.507 17.865L100.132 17.3727C100.175 16.5808 100.005 15.8896 99.6214 15.2991C99.2426 14.696 98.7205 14.2753 98.0553 14.037C97.5155 13.8437 96.9577 13.7997 96.3818 13.905C95.8059 14.0103 95.2791 14.2749 94.8016 14.6987C94.3286 15.1099 93.9594 15.6858 93.6941 16.4264C93.4334 17.1545 93.3529 17.8338 93.4528 18.4644C93.5572 19.0824 93.7921 19.6127 94.1576 20.0552C94.5402 20.4897 95.0077 20.8058 95.56 21.0036C96.3257 21.2779 97.0189 21.2996 97.6398 21.0688C98.2777 20.8299 98.8338 20.3847 99.3079 19.733L100.664 20.2186Z" fill="white" fill-opacity="0.8"/>
<path d="M106.966 16.2976L108.359 17.0859L103.432 25.788L102.039 24.9997L106.966 16.2976ZM110.404 19.9678C109.812 19.6327 109.228 19.5011 108.651 19.5729C108.093 19.6396 107.576 19.8219 107.101 20.1198C106.644 20.4127 106.269 20.7367 105.976 21.0918L106.53 20.0725C106.589 19.9681 106.711 19.8072 106.895 19.5898C107.079 19.3724 107.321 19.149 107.619 18.9196C107.924 18.6786 108.26 18.4779 108.626 18.3177C109.011 18.1525 109.424 18.0723 109.866 18.0771C110.307 18.082 110.766 18.2191 111.242 18.4884L110.404 19.9678Z" fill="white" fill-opacity="0.8"/>
<path d="M112.215 31.7715C111.559 31.2253 111.077 30.5545 110.768 29.759C110.458 28.9636 110.372 28.1194 110.508 27.2265C110.663 26.332 111.082 25.4749 111.765 24.6553C112.448 23.8357 113.211 23.2739 114.054 22.9698C114.916 22.664 115.77 22.5861 116.617 22.7362C117.464 22.8862 118.215 23.2343 118.871 23.7805C119.527 24.3266 120 24.9983 120.29 25.7954C120.591 26.6012 120.663 27.4513 120.508 28.3459C120.362 29.2302 119.947 30.0822 119.264 30.9018C118.582 31.7214 117.814 32.2883 116.963 32.6026C116.119 32.9067 115.279 32.9786 114.44 32.8183C113.612 32.6666 112.87 32.3176 112.215 31.7715ZM113.175 30.6189C113.605 30.9773 114.099 31.2068 114.658 31.3074C115.216 31.408 115.788 31.3464 116.373 31.1227C116.978 30.8972 117.531 30.4822 118.035 29.8778C118.538 29.2733 118.842 28.6587 118.946 28.0338C119.069 27.4073 119.035 26.8234 118.843 26.2823C118.652 25.7412 118.341 25.2914 117.911 24.933C117.481 24.5746 116.977 24.346 116.4 24.2471C115.842 24.1465 115.26 24.2089 114.656 24.4344C114.06 24.6496 113.506 25.0646 112.994 25.6793C112.491 26.2837 112.178 26.8992 112.055 27.5258C111.951 28.1506 112.004 28.7328 112.214 29.2722C112.424 29.8116 112.745 30.2605 113.175 30.6189Z" fill="white" fill-opacity="0.8"/>
<path d="M129.192 28.1947L130.243 29.4015L119.684 38.5943L118.633 37.3876L129.192 28.1947Z" fill="white" fill-opacity="0.8"/>
<path d="M134.227 34.2949L135.14 35.6091L123.64 43.5943L122.728 42.2801L134.227 34.2949Z" fill="white" fill-opacity="0.8"/>
<path d="M130.069 55.9146C129.805 55.1595 129.771 54.3946 129.966 53.6201C130.178 52.8537 130.586 52.1604 131.188 51.5401C131.803 50.9154 132.582 50.438 133.526 50.1079C134.47 49.7778 135.375 49.6591 136.241 49.7518C137.107 49.8446 137.861 50.1244 138.505 50.5915C139.149 51.0586 139.609 51.6885 139.886 52.4815C140.133 53.1863 140.201 53.8051 140.091 54.3381C139.997 54.8792 139.766 55.3485 139.397 55.7461C139.027 56.1437 138.562 56.49 138.001 56.785C137.445 57.0925 136.827 57.3651 136.147 57.6028C135.669 57.7701 135.129 57.9024 134.528 57.9998C133.939 58.0928 133.342 58.1036 132.738 58.0324C132.151 57.9693 131.617 57.7747 131.136 57.4486C130.667 57.1182 130.311 56.6068 130.069 55.9146ZM131.636 55.7904C131.861 56.4323 132.203 56.9059 132.663 57.2112C133.127 57.5291 133.652 57.6985 134.239 57.7194C134.838 57.7359 135.452 57.6341 136.081 57.414C136.774 57.172 137.34 56.8537 137.782 56.4593C138.24 56.073 138.539 55.6154 138.679 55.0862C138.835 54.5652 138.804 53.9901 138.584 53.3608C138.254 52.4169 137.665 51.8035 136.817 51.5208C135.982 51.2336 135.061 51.2661 134.055 51.6182C133.387 51.8515 132.834 52.1864 132.393 52.623C131.969 53.0678 131.684 53.5632 131.536 54.1094C131.405 54.6637 131.438 55.2241 131.636 55.7904ZM144.596 54.4364L145.124 55.9467L131.909 60.5683L131.427 59.1901C131.695 59.0681 132.011 58.9222 132.375 58.7524C132.744 58.5952 133.042 58.477 133.268 58.3978L144.596 54.4364Z" fill="white" fill-opacity="0.8"/>
<path d="M133.338 68.4068C133.236 67.5595 133.346 66.7406 133.667 65.95C133.989 65.1594 134.505 64.4863 135.218 63.9308C135.945 63.387 136.838 63.0515 137.897 62.9243C138.956 62.7972 139.896 62.9126 140.718 63.2705C141.555 63.6401 142.229 64.1701 142.742 64.8606C143.255 65.5511 143.562 66.32 143.663 67.1672C143.765 68.0145 143.648 68.8276 143.312 69.6065C142.977 70.3987 142.446 71.0668 141.719 71.6106C141.005 72.1529 140.119 72.4876 139.06 72.6147C138.001 72.7419 137.054 72.6273 136.219 72.2709C135.397 71.913 134.736 71.388 134.237 70.6959C133.739 70.0171 133.439 69.254 133.338 68.4068ZM134.827 68.228C134.894 68.784 135.095 69.2902 135.432 69.7467C135.769 70.2031 136.227 70.551 136.806 70.7903C137.401 71.0413 138.088 71.1199 138.869 71.0262C139.65 70.9324 140.293 70.6941 140.798 70.3112C141.317 69.94 141.693 69.492 141.926 68.9672C142.158 68.4424 142.241 67.902 142.174 67.346C142.107 66.79 141.898 66.2779 141.547 65.8099C141.21 65.3534 140.744 64.9997 140.15 64.7487C139.569 64.4962 138.882 64.4176 138.087 64.5129C137.306 64.6067 136.656 64.8392 136.137 65.2104C135.632 65.5933 135.271 66.0529 135.053 66.5894C134.836 67.1258 134.76 67.672 134.827 68.228Z" fill="white" fill-opacity="0.8"/>
</svg>
