<svg width="419" height="80" viewBox="0 0 419 80" fill="none" xmlns="http://www.w3.org/2000/svg">
<path d="M28.0629 14.6377C18.9988 14.6377 7.12913 20.7048 2.02351 27.9585C1.92875 28.071 1.89123 28.2033 1.89123 28.3534C1.89123 28.7305 2.19331 29.0325 2.5704 29.0325C2.79548 29.0325 3.00278 28.92 3.13506 28.7305C7.99586 21.8341 19.4331 15.9941 28.0629 15.9941C32.4519 15.9941 34.7697 17.6703 34.7697 20.8173C34.7697 28.3731 23.6918 37.9999 11.218 37.9999C10.1637 37.9999 9.03238 37.8696 8.03337 37.6051C11.7649 32.6692 16.7579 27.147 21.1666 23.4175C21.3167 23.2853 21.4114 23.0977 21.4114 22.8904C21.4114 22.5133 21.1094 22.2112 20.7323 22.2112C20.5625 22.2112 20.4124 22.2685 20.2999 22.381C15.6464 26.3198 10.4638 32.0848 6.67701 37.1529C6.65924 37.1905 6.67701 37.1707 6.62173 37.1707C5.28313 36.6633 4.32163 35.9664 3.94454 35.2497C3.832 35.0246 3.58718 34.8726 3.34237 34.8726C2.96527 34.8726 2.6632 35.1747 2.6632 35.5518C2.6632 35.6643 2.68294 35.7768 2.7402 35.8716C3.26734 36.8331 4.35915 37.6998 5.83002 38.302C2.34336 43.1628 0.477614 46.3849 0.102492 48.3059C-0.0120197 48.8903 -0.0297885 49.2872 0.0452363 49.532C0.177516 49.9269 0.609894 50.1342 1.0245 49.9841C1.43911 49.8518 1.72144 49.2497 1.92875 48.1184C1.986 47.836 1.92875 47.5912 1.74118 47.4589C2.47564 45.5754 4.17158 42.8607 7.14887 38.8114C7.18638 38.7364 7.14887 38.7739 7.18638 38.7916C8.46772 39.149 9.8616 39.3563 11.218 39.3563C24.1814 39.3563 36.1261 28.9753 36.1261 20.8173C36.1261 16.8786 33.2061 14.6377 28.0629 14.6377Z" fill="white" fill-opacity="0.8"/>
<path d="M28.6463 53.3366C33.8645 53.3366 48.7312 43.7097 57.2465 37.5301C57.4163 37.4175 57.5288 37.2102 57.5288 36.9832C57.5288 36.6061 57.2267 36.304 56.8516 36.304C56.6996 36.304 56.5673 36.3435 56.4548 36.4363C47.9573 42.5784 33.4499 51.9802 28.6463 51.9802C27.7974 51.9802 27.5151 51.7176 27.5151 50.9259C27.5151 48.5133 31.7737 44.3316 35.9553 40.2053C39.6493 36.5686 43.3235 32.9516 43.3235 30.8035C43.3235 29.9941 42.5871 29.3524 41.6453 28.5054C41.363 28.2784 41.0609 28.0138 40.7786 27.7315C44.283 23.9822 46.3561 21.0997 46.3561 19.9309C46.3561 19.1787 45.9237 18.7266 45.1873 18.7266C42.437 18.7266 36.4272 23.3425 36.4272 25.4906C36.4272 26.2251 36.9918 26.8272 38.7253 27.9763C35.9 30.9161 32.4509 34.0632 29.0787 36.4363C28.8912 36.5686 28.7767 36.7759 28.7767 37.0029C28.7767 37.378 29.0787 37.6801 29.4558 37.6801C29.6059 37.6801 29.7381 37.6426 29.8507 37.5478C32.9405 35.3623 36.6898 31.9526 39.8368 28.7127C41.3827 29.7473 41.9671 30.3139 41.9671 30.8035C41.9671 32.3672 38.6878 35.6071 34.9958 39.2438C30.8122 43.3701 26.1587 47.9486 26.1587 50.9259C26.1587 52.4718 27.0432 53.3366 28.6463 53.3366ZM39.6493 26.9793C38.443 26.1678 37.7835 25.6209 37.7835 25.4906C37.7835 24.2646 42.5693 20.5903 44.5278 20.1777C44.7727 20.1382 44.9247 20.233 44.8497 20.46C44.3403 21.6841 41.438 25.076 39.6493 26.9793Z" fill="white" fill-opacity="0.8"/>
<path d="M81.7376 36.3066C81.5876 36.3066 81.4553 36.3461 81.3427 36.4388C76.557 40.0183 69.0387 42.8455 66.401 42.8455C65.0447 42.8455 64.4978 42.4507 64.4978 41.4892C64.4978 39.9058 65.8364 37.9472 66.8354 36.5139C67.4375 35.6471 67.8146 35.0825 67.8146 34.6501C67.8146 34.198 67.4573 33.8584 67.0052 33.8584C66.5906 33.8584 65.9489 34.2533 63.8206 35.7992C63.3112 34.9699 62.634 34.6304 61.4277 34.6304C58.4504 34.6304 50.6123 39.5287 50.6123 42.5257C50.6123 43.4477 51.2915 44.0519 52.328 44.0519C54.7762 44.0519 60.1661 40.1131 63.7633 37.5129C64.0279 37.3253 64.2905 37.1358 64.5372 36.9482C64.8373 36.7212 64.9696 36.8535 64.7821 37.1733C63.9331 38.5316 63.1414 40.0578 63.1414 41.4892C63.1414 43.2404 64.2905 44.2019 66.401 44.2019C69.4533 44.2019 77.3487 40.962 82.1147 37.5504C82.3042 37.4201 82.4168 37.2128 82.4168 36.9857C82.4168 36.6284 82.0969 36.3066 81.7376 36.3066ZM62.709 36.5909C57.9805 40.0183 54.1365 42.6955 52.328 42.6955C52.1009 42.6955 51.9687 42.6007 51.9687 42.3737C51.9687 40.6224 58.6202 35.9867 61.4277 35.9867C62.1996 35.9867 62.4267 36.0993 62.709 36.5909Z" fill="white" fill-opacity="0.8"/>
<path d="M114.502 24.0594C107.606 23.7771 100.465 23.7968 93.4936 24.0417C98.0346 18.784 102.595 13.6981 107.041 8.83735C107.174 8.72283 107.229 8.55304 107.229 8.38522C107.229 8.00813 106.929 7.70605 106.552 7.70605C106.362 7.70605 106.175 7.78108 106.062 7.93113C101.012 13.3961 96.2083 18.8038 91.6476 24.1167C84.0741 24.4365 76.6684 25.0407 69.9991 25.8877C69.6595 25.9252 69.3969 26.2272 69.3969 26.5668C69.3969 26.9439 69.697 27.244 70.0741 27.244H70.1689C76.4058 26.4345 83.3199 25.8501 90.4611 25.5303C79.853 38.0219 69.5845 51.3052 61.5016 64.0988C61.3516 64.3239 61.2193 64.5687 61.1443 64.776V64.7958C60.9369 65.4177 61.1818 65.8125 61.7839 65.8125C62.2183 65.8125 62.7632 65.3032 63.3298 64.3614C63.4799 64.0791 63.5174 63.8145 63.4049 63.6467C71.545 50.9478 81.774 37.7948 92.3071 25.4553C99.8253 25.1335 107.361 25.1335 114.445 25.4178H114.483C114.86 25.4178 115.162 25.1157 115.162 24.7386C115.162 24.3812 114.88 24.0792 114.502 24.0594Z" fill="white" fill-opacity="0.8"/>
<path d="M121.474 36.3087C121.362 36.3087 121.247 36.3482 121.115 36.4035C116.706 39.2485 108.548 43.205 104.856 43.205C103.687 43.205 103.178 42.8102 103.178 41.9237C103.178 41.2268 103.537 40.3423 103.932 39.3235C104.327 38.3265 104.781 37.2327 104.781 36.3285C104.781 35.4617 104.252 34.8971 103.405 34.8971C101.614 34.8971 98.2994 37.2149 93.2116 42.0185C91.7229 43.4321 90.3093 44.8062 89.2175 45.8803C88.953 46.1448 88.7654 46.1251 89.028 45.7302C90.2343 43.7519 92.2876 40.9267 95.0398 37.44C113.296 25.9099 130.479 6.44698 130.479 2.03633C130.479 1.03929 129.877 0.472656 128.823 0.472656C123.999 0.472656 86.4673 42.9602 86.4673 48.3877C86.4673 48.8773 86.8424 49.2544 87.334 49.2544C87.7289 49.2544 88.106 48.8951 90.1593 46.8418C90.3863 46.6167 90.6311 46.3896 90.8937 46.1448C91.8552 45.2031 92.9668 44.129 94.1533 42.9977C98.2994 39.0787 101.445 36.6858 103.028 36.3087C103.273 36.2534 103.423 36.4035 103.385 36.668C103.293 37.29 103.008 38.0047 102.688 38.7964C102.294 39.8151 101.822 40.9642 101.822 41.9237C101.822 43.5821 102.953 44.5614 104.856 44.5614C108.85 44.5614 117.348 40.4548 121.851 37.5525C122.039 37.4222 122.151 37.2149 122.151 36.9879C122.151 36.6305 121.831 36.3087 121.474 36.3087ZM128.823 1.82902C129.048 1.82902 129.123 1.90602 129.123 2.09358C129.123 5.65527 114.503 22.443 97.8098 33.9928C110.639 18.2791 126.485 1.82902 128.823 1.82902Z" fill="white" fill-opacity="0.8"/>
<path d="M145.061 36.4018C144.911 36.4018 144.779 36.4591 144.646 36.5538C140.822 39.2666 135.734 42.619 129.008 46.5953C132.664 41.3001 134.962 36.4966 134.962 35.158C134.962 34.3485 134.528 33.8589 133.813 33.8589C133.154 33.8589 132.173 34.4986 128.5 37.2686C124.901 40.001 120.53 43.2982 118.759 43.2982C118.494 43.2982 118.4 43.2231 118.4 42.9783C118.4 41.8668 122.131 36.9112 124.619 34.8204C124.769 34.6684 124.844 34.4986 124.844 34.311C124.844 33.9537 124.524 33.6318 124.167 33.6318C123.997 33.6318 123.845 33.6891 123.732 33.7839C121.434 35.7246 117.043 41.1876 117.043 43.0908C117.043 44.0326 117.722 44.6545 118.759 44.6545C120.982 44.6545 125.711 41.0751 129.328 38.3623C131.665 36.5914 132.777 35.7246 133.229 35.4798C133.399 35.385 133.606 35.385 133.549 35.6476C132.927 38.0978 128.82 44.7295 126.088 48.3287L125.503 48.6861C121.207 51.231 116.666 53.924 112.277 56.619C95.5073 66.9447 88.3306 73.0118 88.3306 76.9111C88.3306 78.1727 89.2348 79.0019 90.5714 79.0019C96.3562 79.0019 112.334 65.9457 123.337 53.7937C124.637 52.3801 125.88 50.8717 126.992 49.383C134.925 44.6743 141.764 40.076 145.476 37.6081C145.626 37.5134 145.74 37.2883 145.74 37.081C145.74 36.7217 145.418 36.4018 145.061 36.4018ZM122.356 52.8875C110.524 65.9082 95.452 77.6456 90.5714 77.6456C89.9693 77.6456 89.6869 77.4007 89.6869 76.9111C89.6869 73.6712 97.2032 67.4718 112.994 57.7878C116.516 55.6022 120.153 53.4541 123.695 51.3435C123.262 51.8529 122.81 52.3801 122.356 52.8875Z" fill="white" fill-opacity="0.8"/>
<path d="M168.651 36.2529C168.499 36.2529 168.367 36.2904 168.254 36.3852C163.865 39.4 155.932 42.7899 153.295 42.7899C151.938 42.7899 151.391 42.395 151.391 41.4335C151.391 39.8146 153.2 37.7415 154.464 36.3279C155.932 34.6695 156.045 33.8027 154.841 33.8027C154.274 33.8027 153.125 34.782 150.392 37.0071C146.096 40.474 143.686 42.1127 142.781 42.1127C142.687 42.1127 142.574 42.0554 142.574 41.8481C142.574 40.8313 144.288 38.6635 147.115 36.1009L147.095 36.1206C147.247 36.0258 147.34 35.8185 147.34 35.6112C147.34 35.2539 147.02 34.934 146.663 34.934C146.493 34.934 146.323 35.009 146.211 35.1216C142.989 37.9863 141.218 40.4167 141.218 41.9607C141.218 42.8846 141.802 43.469 142.706 43.469C144.233 43.469 148.584 40.1522 150.864 38.3259C151.147 38.0989 151.259 38.2114 151.052 38.551C150.355 39.6823 150.035 40.5293 150.035 41.4335C150.035 43.1867 151.184 44.1462 153.295 44.1462C156.347 44.1462 164.712 40.4542 169.028 37.4967C169.216 37.3644 169.328 37.1571 169.328 36.9301C169.328 36.5727 169.008 36.2529 168.651 36.2529Z" fill="white" fill-opacity="0.8"/>
<path d="M191.05 36.308C190.958 36.308 190.881 36.3278 190.825 36.3475C188.263 37.2142 185.248 38.081 182.29 38.9477C179.935 39.6071 177.617 40.3041 175.639 40.926C175.676 40.7937 175.696 40.6417 175.714 40.5291C175.789 39.6821 175.129 39.1925 173.98 39.1925C173.283 39.1925 172.342 39.3426 171.437 39.4926C170.458 39.6624 169.514 39.8144 168.762 39.8144C168.103 39.8144 167.876 39.7197 167.876 39.4373C167.876 37.7789 172.284 34.4443 174.677 34.4443C174.885 34.4443 175.054 34.4995 175.054 34.6516C175.054 35.1412 174.395 36.0454 173.755 36.4225C173.548 36.5351 173.416 36.7621 173.416 37.0069C173.416 37.3821 173.718 37.6841 174.093 37.6841C174.207 37.6841 174.34 37.6466 174.452 37.5894C175.299 37.082 176.111 35.9882 176.373 34.9714C176.393 34.8766 176.411 34.7068 176.411 34.5765C176.411 33.6703 175.734 33.0879 174.677 33.0879C171.475 33.0879 166.519 37.0069 166.519 39.5676C166.519 40.6042 167.329 41.1708 168.762 41.1708C169.609 41.1708 170.683 41.001 171.662 40.8312C172.906 40.6239 174.245 40.3041 174.395 40.5666C174.47 40.6989 174.225 41.0938 173.98 41.4531L173.868 41.5281C168.365 43.4492 164.673 45.542 164.673 46.9536C164.673 47.7453 165.295 48.2349 166.332 48.2349C169.214 48.2349 172.964 45.1826 174.715 42.7147C174.735 42.6772 174.772 42.6594 174.829 42.62C177.052 41.8855 179.803 41.0938 182.667 40.2468C185.625 39.3801 188.677 38.4936 191.258 37.6269C191.54 37.5518 191.73 37.2893 191.73 36.9872C191.73 36.6101 191.427 36.308 191.05 36.308ZM166.594 46.8786C166.407 46.8786 166.312 46.8233 166.312 46.7463C166.312 46.6535 166.407 46.539 166.557 46.4462C167.576 45.7295 169.929 44.5232 172.342 43.5262C170.344 45.542 167.988 46.8786 166.594 46.8786Z" fill="white" fill-opacity="0.8"/>
<path d="M218.069 36.3087C217.956 36.3087 217.842 36.3482 217.71 36.4035C213.301 39.2485 205.143 43.205 201.451 43.205C200.282 43.205 199.773 42.8102 199.773 41.9237C199.773 41.2268 200.132 40.3423 200.527 39.3235C200.922 38.3265 201.376 37.2327 201.376 36.3285C201.376 35.4617 200.847 34.8971 200 34.8971C198.209 34.8971 194.894 37.2149 189.806 42.0185C188.318 43.4321 186.904 44.8062 185.812 45.8803C185.548 46.1448 185.36 46.1251 185.623 45.7302C186.829 43.7519 188.882 40.9267 191.635 37.44C209.891 25.9099 227.074 6.44698 227.074 2.03633C227.074 1.03929 226.472 0.472656 225.417 0.472656C220.594 0.472656 183.062 42.9602 183.062 48.3877C183.062 48.8773 183.437 49.2544 183.929 49.2544C184.324 49.2544 184.701 48.8951 186.754 46.8418C186.981 46.6167 187.226 46.3896 187.488 46.1448C188.45 45.2031 189.562 44.129 190.748 42.9977C194.894 39.0787 198.039 36.6858 199.623 36.3087C199.868 36.2534 200.018 36.4035 199.98 36.668C199.887 37.29 199.603 38.0047 199.283 38.7964C198.888 39.8151 198.416 40.9642 198.416 41.9237C198.416 43.5821 199.548 44.5614 201.451 44.5614C205.445 44.5614 213.942 40.4548 218.446 37.5525C218.633 37.4222 218.746 37.2149 218.746 36.9879C218.746 36.6305 218.426 36.3087 218.069 36.3087ZM225.417 1.82902C225.642 1.82902 225.717 1.90602 225.717 2.09358C225.717 5.65527 211.097 22.443 194.405 33.9928C207.234 18.2791 223.08 1.82902 225.417 1.82902Z" fill="white" fill-opacity="0.8"/>
<path d="M242.956 36.3066C242.806 36.3066 242.674 36.3461 242.561 36.4388C237.775 40.0183 230.257 42.8455 227.619 42.8455C226.263 42.8455 225.716 42.4507 225.716 41.4892C225.716 39.9058 227.055 37.9472 228.054 36.5139C228.656 35.6471 229.033 35.0825 229.033 34.6501C229.033 34.198 228.676 33.8584 228.223 33.8584C227.809 33.8584 227.167 34.2533 225.039 35.7992C224.529 34.9699 223.852 34.6304 222.646 34.6304C219.669 34.6304 211.831 39.5287 211.831 42.5257C211.831 43.4477 212.51 44.0519 213.546 44.0519C215.994 44.0519 221.384 40.1131 224.982 37.5129C225.246 37.3253 225.509 37.1358 225.756 36.9482C226.056 36.7212 226.188 36.8535 226 37.1733C225.151 38.5316 224.36 40.0578 224.36 41.4892C224.36 43.2404 225.509 44.2019 227.619 44.2019C230.672 44.2019 238.567 40.962 243.333 37.5504C243.522 37.4201 243.635 37.2128 243.635 36.9857C243.635 36.6284 243.315 36.3066 242.956 36.3066ZM223.927 36.5909C219.199 40.0183 215.355 42.6955 213.546 42.6955C213.319 42.6955 213.187 42.6007 213.187 42.3737C213.187 40.6224 219.838 35.9867 222.646 35.9867C223.418 35.9867 223.645 36.0993 223.927 36.5909Z" fill="white" fill-opacity="0.8"/>
<path d="M297.086 36.3066C296.954 36.3066 296.822 36.3461 296.709 36.4211C295.201 37.3629 291.434 39.2286 286.761 41.5445L283.389 43.2404C285.292 40.6225 286.95 37.965 288.269 35.4399C288.437 35.1023 288.382 34.7804 288.099 34.5356L288.042 34.4803C287.76 34.2355 287.44 34.198 287.138 34.4053C286.251 34.9502 285.272 35.6294 284.198 36.3461C278.848 39.9808 271.519 44.9364 265.395 44.9364C262.305 44.9364 261.098 43.6551 261.57 40.9246C263.039 32.8969 277.624 16.2987 289.323 16.2987C291.849 16.2987 293.092 17.2958 293.092 19.3511C293.092 21.1023 291.811 23.1378 288.889 26.0006C288.759 26.1329 288.684 26.3027 288.684 26.4902C288.684 26.8673 288.984 27.1694 289.361 27.1694C289.531 27.1694 289.7 27.0944 289.833 26.9818C293.055 23.815 294.449 21.5169 294.449 19.3511C294.449 16.5238 292.601 14.9424 289.323 14.9424C277.019 14.9424 261.758 32.2948 260.251 40.6975C259.61 44.277 261.458 46.2928 265.395 46.2928C271.933 46.2928 279.602 41.0924 284.97 37.4754L285.819 36.891C285.951 36.7982 285.969 36.816 285.876 36.966C284.5 39.3411 282.747 41.9038 280.751 44.5218C280.713 44.5593 280.694 44.5968 280.599 44.6363C262.625 53.736 256.03 58.0499 256.03 60.8396C256.03 62.2137 257.067 63.1002 258.668 63.1002C264.755 63.1002 274.289 54.8475 281.428 45.8406C281.505 45.7281 281.56 45.6708 281.598 45.6531L283.539 44.6738C284.765 44.0697 286.044 43.4102 287.363 42.7706C292.036 40.4527 295.86 38.5494 297.444 37.5702C297.633 37.4379 297.764 37.2128 297.764 36.9858C297.764 36.6087 297.464 36.3066 297.086 36.3066ZM258.668 61.7439C257.821 61.7439 257.387 61.424 257.387 60.8396C257.387 58.9739 263.943 54.6975 278.565 47.2167C271.896 55.0923 263.793 61.7439 258.668 61.7439Z" fill="white" fill-opacity="0.8"/>
<path d="M320.524 36.2529C320.372 36.2529 320.239 36.2904 320.127 36.3852C315.738 39.4 307.805 42.7899 305.167 42.7899C303.811 42.7899 303.264 42.395 303.264 41.4335C303.264 39.8146 305.073 37.7415 306.336 36.3279C307.805 34.6695 307.918 33.8027 306.713 33.8027C306.147 33.8027 304.998 34.782 302.265 37.0071C297.969 40.474 295.558 42.1127 294.654 42.1127C294.559 42.1127 294.447 42.0554 294.447 41.8481C294.447 40.8313 296.16 38.6635 298.988 36.1009L298.968 36.1206C299.12 36.0258 299.213 35.8185 299.213 35.6112C299.213 35.2539 298.893 34.934 298.536 34.934C298.366 34.934 298.196 35.009 298.083 35.1216C294.861 37.9863 293.09 40.4167 293.09 41.9607C293.09 42.8846 293.675 43.469 294.579 43.469C296.105 43.469 300.457 40.1522 302.737 38.3259C303.019 38.0989 303.132 38.2114 302.924 38.551C302.228 39.6823 301.908 40.5293 301.908 41.4335C301.908 43.1867 303.057 44.1462 305.167 44.1462C308.22 44.1462 316.585 40.4542 320.901 37.4967C321.088 37.3644 321.201 37.1571 321.201 36.9301C321.201 36.5727 320.881 36.2529 320.524 36.2529Z" fill="white" fill-opacity="0.8"/>
<path d="M343.583 36.2882C343.452 36.2882 343.3 36.3257 343.206 36.4007C337.555 40.2645 330.187 42.8449 327.172 42.8449C325.798 42.8449 325.269 42.4501 325.269 41.4886C325.269 40.8469 325.891 39.5103 327.117 37.532C327.229 37.7196 327.437 37.8321 327.682 37.8321C328.039 37.8321 328.341 37.5498 328.359 37.1924C328.398 36.76 328.341 36.3257 328.151 35.9111C328.623 35.2339 329.133 34.4797 329.678 33.7077C342.396 21.8558 359.976 3.63671 359.976 1.29911C359.976 0.469891 359.486 0 358.562 0C355.377 0 337.76 20.1401 328.963 32.5014L329 32.4817C328.209 33.2161 327.454 33.9131 326.758 34.5745C326.325 34.4047 325.873 34.3099 325.364 34.3099C321.464 34.3099 315.415 39.3977 315.415 42.7126C315.415 43.5419 315.982 44.0512 316.886 44.0512C317.753 44.0512 320.503 41.9782 324.969 38.0216C325.251 37.7571 325.421 37.8716 325.231 38.2092C324.347 39.7551 323.913 40.8666 323.913 41.4886C323.913 43.2398 325.062 44.2013 327.172 44.2013C330.414 44.2013 338.1 41.5261 343.942 37.5498C344.149 37.3997 344.262 37.1924 344.262 36.9654C344.262 36.5902 343.96 36.2882 343.583 36.2882ZM358.562 1.35636C358.637 1.35636 358.657 1.39388 358.657 1.45113C358.657 2.88252 341.982 19.9328 334.785 26.9437C344.639 14.3573 356.696 1.35636 358.562 1.35636ZM316.961 42.6949C316.866 42.6949 316.771 42.6751 316.771 42.5251C316.771 40.1697 322.236 35.6663 325.364 35.6663H325.553C320.635 40.1697 317.508 42.6949 316.961 42.6949Z" fill="white" fill-opacity="0.8"/>
<path d="M367.022 36.2529C366.87 36.2529 366.737 36.2904 366.625 36.3852C362.236 39.4 354.303 42.7899 351.665 42.7899C350.309 42.7899 349.762 42.395 349.762 41.4335C349.762 39.8146 351.571 37.7415 352.834 36.3279C354.303 34.6695 354.416 33.8027 353.211 33.8027C352.645 33.8027 351.496 34.782 348.763 37.0071C344.467 40.474 342.056 42.1127 341.152 42.1127C341.057 42.1127 340.945 42.0554 340.945 41.8481C340.945 40.8313 342.658 38.6635 345.486 36.1009L345.466 36.1206C345.618 36.0258 345.711 35.8185 345.711 35.6112C345.711 35.2539 345.391 34.934 345.034 34.934C344.864 34.934 344.694 35.009 344.581 35.1216C341.359 37.9863 339.588 40.4167 339.588 41.9607C339.588 42.8846 340.173 43.469 341.077 43.469C342.603 43.469 346.955 40.1522 349.235 38.3259C349.517 38.0989 349.63 38.2114 349.423 38.551C348.726 39.6823 348.406 40.5293 348.406 41.4335C348.406 43.1867 349.555 44.1462 351.665 44.1462C354.718 44.1462 363.083 40.4542 367.399 37.4967C367.586 37.3644 367.699 37.1571 367.699 36.9301C367.699 36.5727 367.379 36.2529 367.022 36.2529Z" fill="white" fill-opacity="0.8"/>
<path d="M366.155 53.3366C371.373 53.3366 386.239 43.7097 394.755 37.5301C394.925 37.4175 395.037 37.2102 395.037 36.9832C395.037 36.6061 394.735 36.304 394.36 36.304C394.208 36.304 394.076 36.3435 393.963 36.4363C385.466 42.5784 370.958 51.9802 366.155 51.9802C365.306 51.9802 365.023 51.7176 365.023 50.9259C365.023 48.5133 369.282 44.3316 373.464 40.2053C377.158 36.5686 380.832 32.9516 380.832 30.8035C380.832 29.9941 380.095 29.3524 379.154 28.5054C378.871 28.2784 378.569 28.0138 378.287 27.7315C381.791 23.9822 383.864 21.0997 383.864 19.9309C383.864 19.1787 383.432 18.7266 382.696 18.7266C379.945 18.7266 373.935 23.3425 373.935 25.4906C373.935 26.2251 374.5 26.8272 376.234 27.9763C373.408 30.9161 369.959 34.0632 366.587 36.4363C366.399 36.5686 366.285 36.7759 366.285 37.0029C366.285 37.378 366.587 37.6801 366.964 37.6801C367.114 37.6801 367.246 37.6426 367.359 37.5478C370.449 35.3623 374.198 31.9526 377.345 28.7127C378.891 29.7473 379.475 30.3139 379.475 30.8035C379.475 32.3672 376.196 35.6071 372.504 39.2438C368.32 43.3701 363.667 47.9486 363.667 50.9259C363.667 52.4718 364.551 53.3366 366.155 53.3366ZM377.158 26.9793C375.951 26.1678 375.292 25.6209 375.292 25.4906C375.292 24.2646 380.078 20.5903 382.036 20.1777C382.281 20.1382 382.433 20.233 382.358 20.46C381.849 21.6841 378.946 25.076 377.158 26.9793Z" fill="white" fill-opacity="0.8"/>
<path d="M417.797 36.2529C417.645 36.2529 417.512 36.2904 417.4 36.3852C413.011 39.4 405.078 42.7899 402.44 42.7899C401.084 42.7899 400.537 42.395 400.537 41.4335C400.537 39.8146 402.345 37.7415 403.609 36.3279C405.078 34.6695 405.19 33.8027 403.986 33.8027C403.42 33.8027 402.27 34.782 399.538 37.0071C395.242 40.474 392.831 42.1127 391.927 42.1127C391.832 42.1127 391.72 42.0554 391.72 41.8481C391.72 40.8313 393.433 38.6635 396.261 36.1009L396.241 36.1206C396.393 36.0258 396.486 35.8185 396.486 35.6112C396.486 35.2539 396.166 34.934 395.808 34.934C395.639 34.934 395.469 35.009 395.356 35.1216C392.134 37.9863 390.363 40.4167 390.363 41.9607C390.363 42.8846 390.948 43.469 391.852 43.469C393.378 43.469 397.73 40.1522 400.01 38.3259C400.292 38.0989 400.405 38.2114 400.197 38.551C399.5 39.6823 399.181 40.5293 399.181 41.4335C399.181 43.1867 400.33 44.1462 402.44 44.1462C405.493 44.1462 413.858 40.4542 418.174 37.4967C418.361 37.3644 418.474 37.1571 418.474 36.9301C418.474 36.5727 418.154 36.2529 417.797 36.2529Z" fill="white" fill-opacity="0.8"/>
</svg>
